<svg width="306" height="306" viewBox="0 0 306 306" fill="none" xmlns="http://www.w3.org/2000/svg">
<rect x="3.19922" y="3.19922" width="299" height="299" rx="65" fill="#FFFAFB"/>
<path fill-rule="evenodd" clip-rule="evenodd" d="M68.1988 3.19901L237.2 3.19924C273.098 3.19952 302.199 32.3007 302.2 68.1988L302.199 77.0001L3.19863 77.0003L3.19918 68.199C3.19931 32.3008 32.3006 3.19926 68.1988 3.19901Z" fill="#A40141"/>
<path fill-rule="evenodd" clip-rule="evenodd" d="M79.4485 51.1285C85.8637 51.1285 91.1032 55.1138 91.4322 60.1277L91.4488 60.1285L91.4484 93.1285C91.4484 98.3751 86.0761 102.628 79.4488 102.628C72.8213 102.628 67.449 98.3751 67.449 93.1284L67.4484 60.1285L67.465 60.1283C67.7936 55.1142 73.033 51.1285 79.4485 51.1285Z" fill="#D0D0D0"/>
<path fill-rule="evenodd" clip-rule="evenodd" d="M226.897 51.257C233.312 51.2572 238.551 55.2424 238.879 60.2562L238.896 60.257L238.897 93.257L238.892 93.5021C238.728 98.6355 233.42 102.757 226.896 102.757C220.269 102.757 214.896 98.5036 214.896 93.2569L214.897 60.257L214.912 60.2568C215.241 55.2426 220.481 51.257 226.897 51.257Z" fill="#D0D0D0"/>
<path fill-rule="evenodd" clip-rule="evenodd" d="M216.98 156.873C233.549 156.833 246.939 170.232 246.888 186.801L246.733 236.805C246.681 253.373 233.208 266.837 216.64 266.877L134.8 267.073C118.232 267.113 104.842 253.713 104.893 237.145L104.918 228.999L142.312 228.999C142.714 234.137 147.001 238.167 152.248 238.154L199.299 238.041C204.822 238.028 209.313 233.54 209.33 228.017L209.429 196.015C209.446 190.493 204.983 186.026 199.46 186.039L152.409 186.153C146.946 186.167 142.495 190.558 142.383 195.999L105.02 196L105.049 187.142C105.1 170.573 118.572 157.11 135.141 157.07L216.98 156.873Z" fill="#FF7D9E"/>
<path fill-rule="evenodd" clip-rule="evenodd" d="M169.944 116.997C186.513 116.958 199.902 130.357 199.851 146.925L199.825 155L162.381 154.999C161.887 149.955 157.64 146.027 152.46 146.04L105.409 146.152C99.8862 146.166 95.3951 150.654 95.3777 156.176L95.2787 188.178C95.2616 193.701 99.7247 198.167 105.247 198.154L152.299 198.041C157.821 198.028 162.313 193.54 162.33 188.017L162.329 188L199.723 188L199.696 196.929C199.644 213.497 186.172 226.96 169.604 227L87.7632 227.197C71.1951 227.237 57.805 213.838 57.8563 197.27L58.0116 147.265C58.0632 130.697 71.5365 117.233 88.1047 117.193L169.944 116.997Z" fill="#FF205C"/>
</svg>
